<?xml version="1.0" encoding="UTF-8" standalone="no" ?>
<!DOCTYPE svg PUBLIC "-//W3C//DTD SVG 1.1//EN" "http://www.w3.org/Graphics/SVG/1.1/DTD/svg11.dtd">
<svg xmlns="http://www.w3.org/2000/svg" xmlns:xlink="http://www.w3.org/1999/xlink" version="1.1" width="516.51578125" height="137.99" xml:space="preserve">
<desc>Created with Fabric.js 1.6.0-rc.1</desc>
<defs></defs>
<g style="stroke: none; stroke-width: 1; stroke-dasharray: none; stroke-linecap: butt; stroke-linejoin: miter; stroke-miterlimit: 10; fill: none; fill-rule: nonzero; opacity: 1;" transform="translate(10 10) scale(0.23 0.23)" >
  <circle cx="256" cy="256" r="256" style="stroke: none; stroke-width: 1; stroke-dasharray: none; stroke-linecap: butt; stroke-linejoin: miter; stroke-miterlimit: 10; fill: #36e859; fill-rule: nonzero; opacity: 1;" transform="  matrix(1 0 0 1 0 0) "/>
  <path d="M 381.673 348.835 l -88.436 -93.091 h -74.473 l -73.402 99.286 c 4.794 -3.868 10.892 -6.195 17.548 -6.195 H 381.673 z" style="stroke: none; stroke-width: 1; stroke-dasharray: none; stroke-linecap: butt; stroke-linejoin: miter; stroke-miterlimit: 10; fill: #000007; fill-rule: nonzero; opacity: 1;" transform=" matrix(1 0 0 1 0 0) " stroke-linecap="round" />
  <path d="M 348.998 261.53 c -2.541 -15.253 -12.637 -30.501 -22.184 -42.017 c -3.263 6.293 -8.513 11.362 -14.922 14.429 c 0.689 26.028 0.344 53.523 -14.35 101.446 c 4.915 5.413 10.757 11.082 15.504 13.456 C 338.725 338.562 354.132 292.347 348.998 261.53 z" style="stroke: none; stroke-width: 1; stroke-dasharray: none; stroke-linecap: butt; stroke-linejoin: miter; stroke-miterlimit: 10; fill: #000000; fill-rule: nonzero; opacity: 1;" transform=" matrix(1 0 0 1 0 0) " stroke-linecap="round" />
  <path d="M 200.108 233.937 c -6.409 -3.063 -11.66 -8.136 -14.922 -14.429 c -9.546 11.52 -19.642 26.764 -22.184 42.017 c -5.139 30.818 10.273 77.037 35.952 87.31 c 4.752 -2.374 10.584 -8.043 15.504 -13.456 C 199.759 287.46 199.419 259.966 200.108 233.937 z" style="stroke: none; stroke-width: 1; stroke-dasharray: none; stroke-linecap: butt; stroke-linejoin: miter; stroke-miterlimit: 10; fill: #000000; fill-rule: nonzero; opacity: 1;" transform=" matrix(1 0 0 1 0 0) " stroke-linecap="round" />
  <path d="M 297.891 237.126 c -17.994 0 -32.582 -14.587 -32.582 -32.582 c 0 -1.089 0.061 -2.164 0.163 -3.226 c -6.335 -1.839 -12.609 -1.839 -18.944 0 c 0.102 1.061 0.163 2.136 0.163 3.226 c 0 17.994 -14.587 32.582 -32.582 32.582 c -5.018 0 -9.756 -1.164 -14.001 -3.193 c -0.749 28.379 -0.321 58.438 18.655 114.902 H 256 h 37.236 c 18.977 -56.464 19.405 -86.523 18.655 -114.902 C 307.647 235.962 302.909 237.126 297.891 237.126 z" style="stroke: none; stroke-width: 1; stroke-dasharray: none; stroke-linecap: butt; stroke-linejoin: miter; stroke-miterlimit: 10; fill: #000003; fill-rule: nonzero; opacity: 1;" transform=" matrix(1 0 0 1 0 0) " stroke-linecap="round" />
  <path d="M 246.528 201.318 c 0.102 1.061 0.163 2.136 0.163 3.226 c 0 17.994 -14.587 32.582 -32.582 32.582 c -5.018 0 -9.756 -1.164 -14.001 -3.193 c -0.749 28.379 -0.321 58.438 18.655 114.902 H 256 V 199.936 C 252.849 199.936 249.698 200.401 246.528 201.318 z" style="stroke: none; stroke-width: 1; stroke-dasharray: none; stroke-linecap: butt; stroke-linejoin: miter; stroke-miterlimit: 10; fill: #000007; fill-rule: nonzero; opacity: 1;" transform=" matrix(1 0 0 1 0 0) " stroke-linecap="round" />
  <polygon points="325.82,152.65 325.82,176.87 335.13,162.91 344.44,176.87 344.44,148.74 " style="stroke: none; stroke-width: 1; stroke-dasharray: none; stroke-linecap: butt; stroke-linejoin: miter; stroke-miterlimit: 10; fill: #000003; fill-rule: nonzero; opacity: 1;" transform="  matrix(1 0 0 1 0 0) "/>
  <path d="M 350.562 138.58 l -93.091 -31.293 c -0.954 -0.317 -1.987 -0.317 -2.946 0 l -93.091 31.293 c -1.997 0.67 -3.295 2.593 -3.174 4.692 c 0.126 2.099 1.638 3.859 3.696 4.282 l 42.845 9.118 V 204.8 h 102.4 v -48.128 l 42.84 -9.118 c 2.057 -0.424 3.579 -2.183 3.691 -4.282 C 353.857 141.172 352.559 139.25 350.562 138.58 z" style="stroke: none; stroke-width: 1; stroke-dasharray: none; stroke-linecap: butt; stroke-linejoin: miter; stroke-miterlimit: 10; fill: #000000; fill-rule: nonzero; opacity: 1;" transform=" matrix(1 0 0 1 0 0) " stroke-linecap="round" />
  <path d="M 161.438 138.58 c -1.997 0.67 -3.295 2.593 -3.174 4.692 c 0.126 2.099 1.638 3.859 3.696 4.282 l 93.091 19.81 c 0.312 0.07 0.633 0 0.95 0 v -60.309 c -0.498 0 -0.996 0.084 -1.471 0.237 L 161.438 138.58 z" style="stroke: none; stroke-width: 1; stroke-dasharray: none; stroke-linecap: butt; stroke-linejoin: miter; stroke-miterlimit: 10; fill: #000003; fill-rule: nonzero; opacity: 1;" transform=" matrix(1 0 0 1 0 0) " stroke-linecap="round" />
  <path d="M 381.673 348.835 v 4.655 c 0 2.574 -2.085 4.655 -4.655 4.655 H 162.909 c -10.142 0 -18.618 8.262 -18.618 18.618 c 0 10.291 8.332 18.618 18.618 18.618 h 214.109 c 2.569 0 4.655 2.085 4.655 4.655 c 0 2.574 -2.085 4.655 -4.655 4.655 H 162.909 c -15.407 0 -27.927 -12.516 -27.927 -27.927 c 0 -8.746 4.049 -16.607 10.38 -21.732 c 4.794 -3.868 10.892 -6.195 17.548 -6.195 H 381.673 z" style="stroke: none; stroke-width: 1; stroke-dasharray: none; stroke-linecap: butt; stroke-linejoin: miter; stroke-miterlimit: 10; fill: #000003; fill-rule: nonzero; opacity: 1;" transform=" matrix(1 0 0 1 0 0) " stroke-linecap="round" />
  <path d="M 367.709 358.144 v 37.236 h -204.8 c -10.138 0 -18.618 -8.257 -18.618 -18.618 c 0 -10.356 8.481 -18.618 18.618 -18.618 H 367.709 z" style="stroke: none; stroke-width: 1; stroke-dasharray: none; stroke-linecap: butt; stroke-linejoin: miter; stroke-miterlimit: 10; fill: #36e859; fill-rule: nonzero; opacity: 1;" transform=" matrix(1 0 0 1 0 0) " stroke-linecap="round" />
  <path d="M 367.709 362.799 v 9.309 H 144.896 c 0.931 -3.672 2.979 -6.884 5.725 -9.309 H 367.709 z" style="stroke: none; stroke-width: 1; stroke-dasharray: none; stroke-linecap: butt; stroke-linejoin: miter; stroke-miterlimit: 10; fill: #FFC7B2; fill-rule: nonzero; opacity: 1;" transform=" matrix(1 0 0 1 0 0) " stroke-linecap="round" />
  <path d="M 367.709 381.417 v 9.309 H 150.621 c -2.746 -2.416 -4.794 -5.627 -5.725 -9.309 H 367.709 z" style="stroke: none; stroke-width: 1; stroke-dasharray: none; stroke-linecap: butt; stroke-linejoin: miter; stroke-miterlimit: 10; fill: #FFC7B2; fill-rule: nonzero; opacity: 1;" transform=" matrix(1 0 0 1 0 0) " stroke-linecap="round" />
  <path d="M 311.855 339.526 c -18.618 -12.409 -37.236 -12.409 -55.855 0 c -18.618 -12.409 -37.236 -12.409 -55.855 0 c -3.105 9.309 0 18.618 9.309 27.927 l 9.309 -18.618 l 9.309 18.618 l 9.309 -18.618 l 9.309 18.618 c 4.655 -4.655 7.759 -9.309 9.309 -13.964 c 1.55 4.655 4.655 9.309 9.309 13.964 l 9.309 -18.618 l 9.309 18.618 l 9.309 -18.618 l 9.309 18.618 C 311.855 358.144 314.959 348.835 311.855 339.526 z" style="stroke: none; stroke-width: 1; stroke-dasharray: none; stroke-linecap: butt; stroke-linejoin: miter; stroke-miterlimit: 10; fill: #DE5735; fill-rule: nonzero; opacity: 1;" transform=" matrix(1 0 0 1 0 0) " stroke-linecap="round" />
  <path d="M 259.267 231.606 c -1.815 -1.787 -4.729 -1.787 -6.54 0.005 c -3.002 2.96 -8.071 6.903 -15.206 8.899 c -1.662 0.465 -2.932 1.811 -3.295 3.5 c -0.368 1.69 0.237 3.435 1.559 4.548 c 8.476 7.108 20.215 16.496 20.215 16.496 s 11.739 -9.393 20.21 -16.5 c 1.322 -1.108 1.922 -2.858 1.555 -4.547 c -0.363 -1.685 -1.629 -3.035 -3.291 -3.5 C 267.343 238.513 262.27 234.57 259.267 231.606 z" style="stroke: none; stroke-width: 1; stroke-dasharray: none; stroke-linecap: butt; stroke-linejoin: miter; stroke-miterlimit: 10; fill: #000007; fill-rule: nonzero; opacity: 1;" transform=" matrix(1 0 0 1 0 0) " stroke-linecap="round" />
  <path d="M 297.891 171.962 c -13.656 0 -25.33 8.411 -30.175 20.322 c -7.801 -2.192 -15.63 -2.192 -23.431 0 c -4.845 -11.916 -16.519 -20.322 -30.175 -20.322 c -17.994 0 -32.582 14.592 -32.582 32.582 c 0 17.994 14.587 32.582 32.582 32.582 s 32.582 -14.587 32.582 -32.582 c 0 -1.089 -0.061 -2.164 -0.163 -3.226 c 6.335 -1.839 12.609 -1.839 18.944 0 c -0.102 1.061 -0.163 2.136 -0.163 3.226 c 0 17.994 14.587 32.582 32.582 32.582 c 17.994 0 32.582 -14.587 32.582 -32.582 C 330.473 186.554 315.885 171.962 297.891 171.962 z" style="stroke: none; stroke-width: 1; stroke-dasharray: none; stroke-linecap: butt; stroke-linejoin: miter; stroke-miterlimit: 10; fill: #D22600; fill-rule: nonzero; opacity: 1;" transform=" matrix(1 0 0 1 0 0) " stroke-linecap="round" />
  <circle cx="214.113" cy="204.543" r="23.273" style="stroke: none; stroke-width: 1; stroke-dasharray: none; stroke-linecap: butt; stroke-linejoin: miter; stroke-miterlimit: 10; fill: #FFE4DE; fill-rule: nonzero; opacity: 1;" transform="  matrix(1 0 0 1 0 0) "/>
  <path d="M 214.109 181.271 c -12.856 0 -23.273 10.426 -23.273 23.273 c 0 6.265 2.504 11.93 6.53 16.109 l 32.852 -32.847 C 226.034 183.78 220.374 181.271 214.109 181.271 z" style="stroke: none; stroke-width: 1; stroke-dasharray: none; stroke-linecap: butt; stroke-linejoin: miter; stroke-miterlimit: 10; fill: #36e859; fill-rule: nonzero; opacity: 1;" transform=" matrix(1 0 0 1 0 0) " stroke-linecap="round" />
  <circle cx="297.89300000000003" cy="204.543" r="23.273" style="stroke: none; stroke-width: 1; stroke-dasharray: none; stroke-linecap: butt; stroke-linejoin: miter; stroke-miterlimit: 10; fill: #FFE4DE; fill-rule: nonzero; opacity: 1;" transform="  matrix(1 0 0 1 0 0) "/>
  <path d="M 297.891 181.271 c -12.856 0 -23.273 10.426 -23.273 23.273 c 0 6.265 2.504 11.93 6.53 16.109 L 314 187.806 C 309.816 183.78 304.156 181.271 297.891 181.271 z" style="stroke: none; stroke-width: 1; stroke-dasharray: none; stroke-linecap: butt; stroke-linejoin: miter; stroke-miterlimit: 10; fill: #36e859; fill-rule: nonzero; opacity: 1;" transform=" matrix(1 0 0 1 0 0) " stroke-linecap="round" />
  <path d="M 214.109 195.235 c -3.202 0 -6.018 1.62 -7.694 4.073 l 7.694 4.445 l -8.355 4.822 c 1.508 3.114 4.664 5.278 8.355 5.278 c 5.139 0 9.309 -4.166 9.309 -9.309 C 223.418 199.41 219.248 195.235 214.109 195.235 z" style="stroke: none; stroke-width: 1; stroke-dasharray: none; stroke-linecap: butt; stroke-linejoin: miter; stroke-miterlimit: 10; fill: #000000; fill-rule: nonzero; opacity: 1;" transform=" matrix(1 0 0 1 0 0) " stroke-linecap="round" />
  <path d="M 297.891 195.235 c -3.202 0 -6.018 1.62 -7.694 4.073 l 7.694 4.445 l -8.355 4.822 c 1.508 3.114 4.664 5.278 8.355 5.278 c 5.139 0 9.309 -4.166 9.309 -9.309 C 307.2 199.41 303.03 195.235 297.891 195.235 z" style="stroke: none; stroke-width: 1; stroke-dasharray: none; stroke-linecap: butt; stroke-linejoin: miter; stroke-miterlimit: 10; fill: #000000; fill-rule: nonzero; opacity: 1;" transform=" matrix(1 0 0 1 0 0) " stroke-linecap="round" />
  <path d="M 252.732 231.61 c -3.002 2.96 -8.071 6.903 -15.211 8.899 c -1.662 0.465 -2.932 1.811 -3.295 3.5 c -0.363 1.685 0.237 3.435 1.559 4.548 c 8.476 7.108 20.215 16.496 20.215 16.496 V 230.26 C 254.818 230.265 253.635 230.707 252.732 231.61 z" style="stroke: none; stroke-width: 1; stroke-dasharray: none; stroke-linecap: butt; stroke-linejoin: miter; stroke-miterlimit: 10; fill: #DE5735; fill-rule: nonzero; opacity: 1;" transform=" matrix(1 0 0 1 0 0) " stroke-linecap="round" />
</g>
  <g transform="translate(200.38 55.72)">
   <text font-family="ADAMCG PRO" font-size="40" font-weight="normal" style="stroke: none; stroke-width: 1; stroke-dasharray: none; stroke-linecap: butt; stroke-linejoin: miter; stroke-miterlimit: 10; fill: #27a13f; fill-rule: nonzero; opacity: 1;" ><tspan x="-60.88" y="8.98" style="stroke: none; stroke-width: 0; stroke-dasharray: none; stroke-linecap: butt; stroke-linejoin: miter; stroke-miterlimit: 4; fill: #27a13f; fill-rule: ; opacity: 1;">D</tspan><tspan x="-33.89" y="8.98" style="stroke: none; stroke-width: 0; stroke-dasharray: none; stroke-linecap: butt; stroke-linejoin: miter; stroke-miterlimit: 4; fill: #27a13f; fill-rule: ; opacity: 1;">e</tspan><tspan x="-10.63" y="8.98" style="stroke: none; stroke-width: 0; stroke-dasharray: none; stroke-linecap: butt; stroke-linejoin: miter; stroke-miterlimit: 4; fill: #27a13f; fill-rule: ; opacity: 1;">v</tspan><tspan x="17.68" y="8.98" style="stroke: none; stroke-width: 0; stroke-dasharray: none; stroke-linecap: butt; stroke-linejoin: miter; stroke-miterlimit: 4; fill: #27a13f; fill-rule: ; opacity: 1;">i</tspan><tspan x="28.46" y="8.98" style="stroke: none; stroke-width: 0; stroke-dasharray: none; stroke-linecap: butt; stroke-linejoin: miter; stroke-miterlimit: 4; fill: #27a13f; fill-rule: ; opacity: 1;">l</tspan><tspan x="48.89" y="8.98" style="stroke: none; stroke-width: 0; stroke-dasharray: none; stroke-linecap: butt; stroke-linejoin: miter; stroke-miterlimit: 4; fill: #27a13f; fill-rule: ; opacity: 1;"> </tspan></text>
 </g>
  <g transform="translate(307.84 92.29) scale(0.46 0.46)">
   <text font-family="ADAMCG PRO" font-size="40" font-weight="normal" style="stroke: none; stroke-width: 1; stroke-dasharray: none; stroke-linecap: butt; stroke-linejoin: miter; stroke-miterlimit: 10; fill: #000000; fill-rule: nonzero; opacity: 1;" ><tspan x="-347.82" y="8.98" style="stroke: none; stroke-width: 0; stroke-dasharray: none; stroke-linecap: butt; stroke-linejoin: miter; stroke-miterlimit: 4; fill: #000000; fill-rule: ; opacity: 1;">K</tspan><tspan x="-321.71" y="8.98" style="stroke: none; stroke-width: 0; stroke-dasharray: none; stroke-linecap: butt; stroke-linejoin: miter; stroke-miterlimit: 4; fill: #000000; fill-rule: ; opacity: 1;">n</tspan><tspan x="-292.2" y="8.98" style="stroke: none; stroke-width: 0; stroke-dasharray: none; stroke-linecap: butt; stroke-linejoin: miter; stroke-miterlimit: 4; fill: #000000; fill-rule: ; opacity: 1;">o</tspan><tspan x="-258.25" y="8.98" style="stroke: none; stroke-width: 0; stroke-dasharray: none; stroke-linecap: butt; stroke-linejoin: miter; stroke-miterlimit: 4; fill: #000000; fill-rule: ; opacity: 1;">w</tspan><tspan x="-213.43" y="8.98" style="stroke: none; stroke-width: 0; stroke-dasharray: none; stroke-linecap: butt; stroke-linejoin: miter; stroke-miterlimit: 4; fill: #000000; fill-rule: ; opacity: 1;">l</tspan><tspan x="-193" y="8.98" style="stroke: none; stroke-width: 0; stroke-dasharray: none; stroke-linecap: butt; stroke-linejoin: miter; stroke-miterlimit: 4; fill: #000000; fill-rule: ; opacity: 1;">e</tspan><tspan x="-169.74" y="8.98" style="stroke: none; stroke-width: 0; stroke-dasharray: none; stroke-linecap: butt; stroke-linejoin: miter; stroke-miterlimit: 4; fill: #000000; fill-rule: ; opacity: 1;">d</tspan><tspan x="-142.74" y="8.98" style="stroke: none; stroke-width: 0; stroke-dasharray: none; stroke-linecap: butt; stroke-linejoin: miter; stroke-miterlimit: 4; fill: #000000; fill-rule: ; opacity: 1;">g</tspan><tspan x="-114.35" y="8.98" style="stroke: none; stroke-width: 0; stroke-dasharray: none; stroke-linecap: butt; stroke-linejoin: miter; stroke-miterlimit: 4; fill: #000000; fill-rule: ; opacity: 1;">e</tspan><tspan x="-91.08" y="8.98" style="stroke: none; stroke-width: 0; stroke-dasharray: none; stroke-linecap: butt; stroke-linejoin: miter; stroke-miterlimit: 4; fill: #000000; fill-rule: ; opacity: 1;"> </tspan><tspan x="-79.09" y="8.98" style="stroke: none; stroke-width: 0; stroke-dasharray: none; stroke-linecap: butt; stroke-linejoin: miter; stroke-miterlimit: 4; fill: #000000; fill-rule: ; opacity: 1;">B</tspan><tspan x="-55.58" y="8.98" style="stroke: none; stroke-width: 0; stroke-dasharray: none; stroke-linecap: butt; stroke-linejoin: miter; stroke-miterlimit: 4; fill: #000000; fill-rule: ; opacity: 1;">e</tspan><tspan x="-32.31" y="8.98" style="stroke: none; stroke-width: 0; stroke-dasharray: none; stroke-linecap: butt; stroke-linejoin: miter; stroke-miterlimit: 4; fill: #000000; fill-rule: ; opacity: 1;">y</tspan><tspan x="-4.79" y="8.98" style="stroke: none; stroke-width: 0; stroke-dasharray: none; stroke-linecap: butt; stroke-linejoin: miter; stroke-miterlimit: 4; fill: #000000; fill-rule: ; opacity: 1;">o</tspan><tspan x="29.15" y="8.98" style="stroke: none; stroke-width: 0; stroke-dasharray: none; stroke-linecap: butt; stroke-linejoin: miter; stroke-miterlimit: 4; fill: #000000; fill-rule: ; opacity: 1;">n</tspan><tspan x="58.66" y="8.98" style="stroke: none; stroke-width: 0; stroke-dasharray: none; stroke-linecap: butt; stroke-linejoin: miter; stroke-miterlimit: 4; fill: #000000; fill-rule: ; opacity: 1;">d</tspan><tspan x="85.65" y="8.98" style="stroke: none; stroke-width: 0; stroke-dasharray: none; stroke-linecap: butt; stroke-linejoin: miter; stroke-miterlimit: 4; fill: #000000; fill-rule: ; opacity: 1;"> </tspan><tspan x="97.65" y="8.98" style="stroke: none; stroke-width: 0; stroke-dasharray: none; stroke-linecap: butt; stroke-linejoin: miter; stroke-miterlimit: 4; fill: #000000; fill-rule: ; opacity: 1;">B</tspan><tspan x="121.16" y="8.98" style="stroke: none; stroke-width: 0; stroke-dasharray: none; stroke-linecap: butt; stroke-linejoin: miter; stroke-miterlimit: 4; fill: #000000; fill-rule: ; opacity: 1;">o</tspan><tspan x="155.11" y="8.98" style="stroke: none; stroke-width: 0; stroke-dasharray: none; stroke-linecap: butt; stroke-linejoin: miter; stroke-miterlimit: 4; fill: #000000; fill-rule: ; opacity: 1;">u</tspan><tspan x="182.74" y="8.98" style="stroke: none; stroke-width: 0; stroke-dasharray: none; stroke-linecap: butt; stroke-linejoin: miter; stroke-miterlimit: 4; fill: #000000; fill-rule: ; opacity: 1;">n</tspan><tspan x="212.26" y="8.98" style="stroke: none; stroke-width: 0; stroke-dasharray: none; stroke-linecap: butt; stroke-linejoin: miter; stroke-miterlimit: 4; fill: #000000; fill-rule: ; opacity: 1;">d</tspan><tspan x="239.25" y="8.98" style="stroke: none; stroke-width: 0; stroke-dasharray: none; stroke-linecap: butt; stroke-linejoin: miter; stroke-miterlimit: 4; fill: #000000; fill-rule: ; opacity: 1;">a</tspan><tspan x="267.04" y="8.98" style="stroke: none; stroke-width: 0; stroke-dasharray: none; stroke-linecap: butt; stroke-linejoin: miter; stroke-miterlimit: 4; fill: #000000; fill-rule: ; opacity: 1;">r</tspan><tspan x="292.67" y="8.98" style="stroke: none; stroke-width: 0; stroke-dasharray: none; stroke-linecap: butt; stroke-linejoin: miter; stroke-miterlimit: 4; fill: #000000; fill-rule: ; opacity: 1;">i</tspan><tspan x="303.45" y="8.98" style="stroke: none; stroke-width: 0; stroke-dasharray: none; stroke-linecap: butt; stroke-linejoin: miter; stroke-miterlimit: 4; fill: #000000; fill-rule: ; opacity: 1;">e</tspan><tspan x="326.71" y="8.98" style="stroke: none; stroke-width: 0; stroke-dasharray: none; stroke-linecap: butt; stroke-linejoin: miter; stroke-miterlimit: 4; fill: #000000; fill-rule: ; opacity: 1;">s</tspan></text>
 </g>
  <g transform="translate(380.52 50.88) scale(1.53 1.53)">
   <text font-family="King Of The World" font-size="40" font-weight="normal" style="stroke: none; stroke-width: 1; stroke-dasharray: none; stroke-linecap: butt; stroke-linejoin: miter; stroke-miterlimit: 10; fill: #101411; fill-rule: nonzero; opacity: 1;" ><tspan x="-82.85" y="8.98" style="stroke: none; stroke-width: 0; stroke-dasharray: none; stroke-linecap: butt; stroke-linejoin: miter; stroke-miterlimit: 4; fill: #101411; fill-rule: ; opacity: 1;">u</tspan><tspan x="-63.32" y="8.98" style="stroke: none; stroke-width: 0; stroke-dasharray: none; stroke-linecap: butt; stroke-linejoin: miter; stroke-miterlimit: 4; fill: #101411; fill-rule: ; opacity: 1;">n</tspan><tspan x="-43.09" y="8.98" style="stroke: none; stroke-width: 0; stroke-dasharray: none; stroke-linecap: butt; stroke-linejoin: miter; stroke-miterlimit: 4; fill: #101411; fill-rule: ; opacity: 1;">i</tspan><tspan x="-35.51" y="8.98" style="stroke: none; stroke-width: 0; stroke-dasharray: none; stroke-linecap: butt; stroke-linejoin: miter; stroke-miterlimit: 4; fill: #101411; fill-rule: ; opacity: 1;">v</tspan><tspan x="-16.05" y="8.98" style="stroke: none; stroke-width: 0; stroke-dasharray: none; stroke-linecap: butt; stroke-linejoin: miter; stroke-miterlimit: 4; fill: #101411; fill-rule: ; opacity: 1;">e</tspan><tspan x="2.62" y="8.98" style="stroke: none; stroke-width: 0; stroke-dasharray: none; stroke-linecap: butt; stroke-linejoin: miter; stroke-miterlimit: 4; fill: #101411; fill-rule: ; opacity: 1;">r</tspan><tspan x="17.93" y="8.98" style="stroke: none; stroke-width: 0; stroke-dasharray: none; stroke-linecap: butt; stroke-linejoin: miter; stroke-miterlimit: 4; fill: #101411; fill-rule: ; opacity: 1;">s</tspan><tspan x="35.9" y="8.98" style="stroke: none; stroke-width: 0; stroke-dasharray: none; stroke-linecap: butt; stroke-linejoin: miter; stroke-miterlimit: 4; fill: #101411; fill-rule: ; opacity: 1;">i</tspan><tspan x="43.48" y="8.98" style="stroke: none; stroke-width: 0; stroke-dasharray: none; stroke-linecap: butt; stroke-linejoin: miter; stroke-miterlimit: 4; fill: #101411; fill-rule: ; opacity: 1;">t</tspan><tspan x="63.01" y="8.98" style="stroke: none; stroke-width: 0; stroke-dasharray: none; stroke-linecap: butt; stroke-linejoin: miter; stroke-miterlimit: 4; fill: #101411; fill-rule: ; opacity: 1;">y</tspan></text>
 </g>
</svg>